Coordinates
version=1
nRows=5
nColumns=40
inDegrees=yes

Units are S.I. units (second, meters, Newtons, ...)
Angles are in degrees.

endheader
time	pelvis_tilt	pelvis_list	pelvis_rotation	pelvis_tx	pelvis_ty	pelvis_tz	hip_flexion_r	hip_adduction_r	hip_rotation_r	knee_angle_r	knee_angle_r_beta	ankle_angle_r	subtalar_angle_r	mtp_angle_r	hip_flexion_l	hip_adduction_l	hip_rotation_l	knee_angle_l	knee_angle_l_beta	ankle_angle_l	subtalar_angle_l	mtp_angle_l	lumbar_extension	lumbar_bending	lumbar_rotation	arm_flex_r	arm_add_r	arm_rot_r	elbow_flex_r	pro_sup_r	wrist_flex_r	wrist_dev_r	arm_flex_l	arm_add_l	arm_rot_l	elbow_flex_l	pro_sup_l	wrist_flex_l	wrist_dev_l
      1.53000000	      1.57148089	      3.29856773	     -4.24516790	      0.11930347	      0.90075939	      1.41426281	     11.64375127	     -7.62553840	     -6.62186410	    -62.57337442	     -1.09211141	    -10.51688390	    -15.94981474	      4.44989918	      6.88303620	     -5.83982402	     13.92410619	    -13.67032383	     -0.23859216	      2.46184433	     -5.28913990	     -5.50506771	     -9.11643950	     -3.55022861	      0.88435287	     10.26045261	     -9.91076552	     18.72333245	     18.70630763	     89.95437384	      0.00000000	      0.00000000	      1.59018097	      8.87034228	    -18.38138666	     13.77231262	     89.95437384	      0.00000000	      0.00000000
      1.54000000	      2.05435189	      3.12644030	     -4.06115969	      0.12953406	      0.90179931	      1.41377961	     12.28290206	     -7.20391276	     -6.28994488	    -63.02126103	     -1.09992850	     -8.52136733	    -16.44231692	      4.87876527	      5.49618466	     -5.85357178	     13.47318647	    -13.50851090	     -0.23576799	      3.25022105	     -5.63600718	     -5.55549437	     -9.59928726	     -3.30373302	      0.55879110	      9.85625945	     -9.92983160	     18.91462346	     18.59769104	     89.95437384	      0.00000000	      0.00000000	      2.61110154	      9.03291374	    -18.50246509	     13.94218676	     89.95437384	      0.00000000	      0.00000000
      1.55000000	      2.63307034	      2.76316347	     -3.82551603	      0.13967175	      0.90311078	      1.41334391	     12.83228988	     -6.66380791	     -6.30959346	    -63.33964947	     -1.10548543	     -6.23914873	    -15.76538685	     15.58244104	      3.96262283	     -5.69664548	     12.79659514	    -13.29704330	     -0.23207719	      4.13343162	     -5.36138466	     -3.97207338	    -10.18318497	     -2.81919612	      0.20871055	      9.51822201	     -9.94573930	     19.03847151	     18.41873788	     89.95437384	      0.00000000	      0.00000000	      3.62894231	      9.23273568	    -19.37144459	     14.23747622	     89.95437384	      0.00000000	      0.00000000
      1.56000000	      2.81449499	      2.48785162	     -3.54478238	      0.14941726	      0.90369224	      1.41276603	     13.80376903	     -6.20316438	     -6.27063119	    -63.32971521	     -1.10531204	     -5.28371992	    -15.80820640	     15.31363691	      3.04447063	     -5.53085473	     12.27357652	    -13.32034311	     -0.23248384	      4.72619457	     -5.44433259	     -4.02526239	    -10.33299013	     -2.40468909	     -0.15078906	      9.11397413	     -9.96132545	     19.14655182	     18.22439259	     89.95437384	      0.00000000	      0.00000000	      4.61170949	      9.36794211	    -19.50844240	     14.55079892	     89.95437384	      0.00000000	      0.00000000
      1.57000000	      2.91554115	      2.27071023	     -3.25557516	      0.15921097	      0.90408304	      1.41217376	     14.85612773	     -5.86005929	     -6.34680846	    -63.13213994	     -1.10186371	     -4.61779407	    -15.71598556	     15.06242004	      2.20523496	     -5.38993902	     12.00632366	    -13.30847051	     -0.23227663	      5.19393429	     -5.48467309	     -4.05560999	    -10.35524623	     -2.03188082	     -0.51971030	      8.65855369	     -9.97303390	     19.17725888	     18.05224745	     89.95437384	      0.00000000	      0.00000000	      5.61318243	      9.50544149	    -19.50896458	     14.84924130	     89.95437384	      0.00000000	      0.00000000
